<svg xmlns="http://www.w3.org/2000/svg" width="800" height="500" viewBox="0 0 800 500">
<rect width="100%" height="100%" fill="white"/>
<text x="400.0" y="25" text-anchor="middle" font-family="sans-serif" font-size="16">Repetition density vs accuracy</text>
<line x1="80" y1="400" x2="730" y2="400" stroke="black"/>
<line x1="80" y1="50" x2="80" y2="400" stroke="black"/>
<polyline points="80.0,400.0 85.1,169.3 95.4,161.4 115.8,161.8 156.8,162.1 238.7,161.1 402.4,160.6 730.0,160.6" fill="none" stroke="#1f77b4" stroke-width="2"/>
<text x="745" y="70" font-family="sans-serif" font-size="12" fill="#1f77b4">1</text>
<polyline points="80.0,400.0 85.1,169.3 95.4,161.4 115.8,161.8 156.8,162.1 238.7,161.1 402.4,160.6 730.0,160.6" fill="none" stroke="#d62728" stroke-width="2"/>
<text x="745" y="90" font-family="sans-serif" font-size="12" fill="#d62728">2</text>
<polyline points="80.0,400.0 85.1,50.0 95.4,50.0 115.8,50.0 156.8,50.0 238.7,50.0 402.4,50.0 730.0,50.0" fill="none" stroke="#2ca02c" stroke-width="2"/>
<text x="745" y="110" font-family="sans-serif" font-size="12" fill="#2ca02c">3</text>
<polyline points="80.0,400.0 85.1,50.0 95.4,50.0 115.8,50.0 156.8,50.0 238.7,50.0 402.4,50.0 730.0,50.0" fill="none" stroke="#9467bd" stroke-width="2"/>
<text x="745" y="130" font-family="sans-serif" font-size="12" fill="#9467bd">4</text>
<text x="405.0" y="485" text-anchor="middle" font-family="sans-serif" font-size="12">Repetitions/context</text>
<text x="15" y="225.0" transform="rotate(-90 15 225.0)" text-anchor="middle" font-family="sans-serif" font-size="12">Accuracy</text>
</svg>