<svg xmlns="http://www.w3.org/2000/svg" width="1100" height="520"><style>text{font-family:Arial;fill:#243447} .title{font-size:20px;font-weight:bold} .small{font-size:12px}</style><text x="90" y="30" class="title">Shadow lookup confidence distribution</text><text x="15" y="230.0" transform="rotate(-90 15 230.0)" class="small">count</text><line x1="90" y1="400.0" x2="1070" y2="400.0" stroke="#52606d"/>
<rect x="98.6" y="337.1" width="44.1" height="62.9" fill="#2f80ed"/><text x="120.6" y="332.1" text-anchor="middle" class="small">1055.000</text><text x="120.6" y="455" transform="rotate(-45 120.6 455)" text-anchor="end" class="small">C0</text>
<rect x="159.8" y="60.0" width="44.1" height="340.0" fill="#2f80ed"/><text x="181.9" y="55.0" text-anchor="middle" class="small">5706.000</text><text x="181.9" y="455" transform="rotate(-45 181.9 455)" text-anchor="end" class="small">C1</text>
<rect x="221.1" y="387.8" width="44.1" height="12.2" fill="#2f80ed"/><text x="243.1" y="382.8" text-anchor="middle" class="small">204.000</text><text x="243.1" y="455" transform="rotate(-45 243.1 455)" text-anchor="end" class="small">C2</text>
<rect x="282.3" y="398.6" width="44.1" height="1.4" fill="#2f80ed"/><text x="304.4" y="393.6" text-anchor="middle" class="small">23.000</text><text x="304.4" y="455" transform="rotate(-45 304.4 455)" text-anchor="end" class="small">C3</text>
<rect x="343.6" y="399.6" width="44.1" height="1.0" fill="#2f80ed"/><text x="365.6" y="394.6" text-anchor="middle" class="small">6.000</text><text x="365.6" y="455" transform="rotate(-45 365.6 455)" text-anchor="end" class="small">C4</text>
<rect x="404.8" y="399.9" width="44.1" height="1.0" fill="#2f80ed"/><text x="426.9" y="394.9" text-anchor="middle" class="small">1.000</text><text x="426.9" y="455" transform="rotate(-45 426.9 455)" text-anchor="end" class="small">C5</text>
<rect x="466.1" y="400.0" width="44.1" height="1.0" fill="#2f80ed"/><text x="488.1" y="395.0" text-anchor="middle" class="small">0.000</text><text x="488.1" y="455" transform="rotate(-45 488.1 455)" text-anchor="end" class="small">C6</text>
<rect x="527.3" y="400.0" width="44.1" height="1.0" fill="#2f80ed"/><text x="549.4" y="395.0" text-anchor="middle" class="small">0.000</text><text x="549.4" y="455" transform="rotate(-45 549.4 455)" text-anchor="end" class="small">C7</text>
<rect x="588.6" y="400.0" width="44.1" height="1.0" fill="#2f80ed"/><text x="610.6" y="395.0" text-anchor="middle" class="small">0.000</text><text x="610.6" y="455" transform="rotate(-45 610.6 455)" text-anchor="end" class="small">C8</text>
<rect x="649.8" y="400.0" width="44.1" height="1.0" fill="#2f80ed"/><text x="671.9" y="395.0" text-anchor="middle" class="small">0.000</text><text x="671.9" y="455" transform="rotate(-45 671.9 455)" text-anchor="end" class="small">C9</text>
<rect x="711.1" y="400.0" width="44.1" height="1.0" fill="#2f80ed"/><text x="733.1" y="395.0" text-anchor="middle" class="small">0.000</text><text x="733.1" y="455" transform="rotate(-45 733.1 455)" text-anchor="end" class="small">C10</text>
<rect x="772.3" y="400.0" width="44.1" height="1.0" fill="#2f80ed"/><text x="794.4" y="395.0" text-anchor="middle" class="small">0.000</text><text x="794.4" y="455" transform="rotate(-45 794.4 455)" text-anchor="end" class="small">C11</text>
<rect x="833.6" y="400.0" width="44.1" height="1.0" fill="#2f80ed"/><text x="855.6" y="395.0" text-anchor="middle" class="small">0.000</text><text x="855.6" y="455" transform="rotate(-45 855.6 455)" text-anchor="end" class="small">C12</text>
<rect x="894.8" y="400.0" width="44.1" height="1.0" fill="#2f80ed"/><text x="916.9" y="395.0" text-anchor="middle" class="small">0.000</text><text x="916.9" y="455" transform="rotate(-45 916.9 455)" text-anchor="end" class="small">C13</text>
<rect x="956.1" y="400.0" width="44.1" height="1.0" fill="#2f80ed"/><text x="978.1" y="395.0" text-anchor="middle" class="small">0.000</text><text x="978.1" y="455" transform="rotate(-45 978.1 455)" text-anchor="end" class="small">C14</text>
<rect x="1017.3" y="400.0" width="44.1" height="1.0" fill="#2f80ed"/><text x="1039.4" y="395.0" text-anchor="middle" class="small">0.000</text><text x="1039.4" y="455" transform="rotate(-45 1039.4 455)" text-anchor="end" class="small">C15</text>
</svg>
