<svg xmlns="http://www.w3.org/2000/svg" width="1100" height="520"><style>text{font-family:Arial;fill:#243447} .title{font-size:20px;font-weight:bold} .small{font-size:12px}</style><text x="90" y="30" class="title">H16 oracle accuracy by context depth</text><text x="15" y="230.0" transform="rotate(-90 15 230.0)" class="small">accuracy</text><line x1="90" y1="400.0" x2="1070" y2="400.0" stroke="#52606d"/>
<rect x="117.4" y="166.0" width="141.1" height="234.0" fill="#2f80ed"/><text x="188.0" y="161.0" text-anchor="middle" class="small">0.228</text><text x="188.0" y="455" transform="rotate(-45 188.0 455)" text-anchor="end" class="small">D1</text>
<rect x="313.4" y="94.9" width="141.1" height="305.1" fill="#2f80ed"/><text x="384.0" y="89.9" text-anchor="middle" class="small">0.298</text><text x="384.0" y="455" transform="rotate(-45 384.0 455)" text-anchor="end" class="small">D2</text>
<rect x="509.4" y="65.8" width="141.1" height="334.2" fill="#2f80ed"/><text x="580.0" y="60.8" text-anchor="middle" class="small">0.326</text><text x="580.0" y="455" transform="rotate(-45 580.0 455)" text-anchor="end" class="small">D4</text>
<rect x="705.4" y="60.0" width="141.1" height="340.0" fill="#2f80ed"/><text x="776.0" y="55.0" text-anchor="middle" class="small">0.332</text><text x="776.0" y="455" transform="rotate(-45 776.0 455)" text-anchor="end" class="small">D8</text>
<rect x="901.4" y="60.8" width="141.1" height="339.2" fill="#2f80ed"/><text x="972.0" y="55.8" text-anchor="middle" class="small">0.331</text><text x="972.0" y="455" transform="rotate(-45 972.0 455)" text-anchor="end" class="small">D16</text>
</svg>
