<svg xmlns="http://www.w3.org/2000/svg" width="800" height="500" viewBox="0 0 800 500">
<rect width="100%" height="100%" fill="white"/>
<text x="400.0" y="25" text-anchor="middle" font-family="sans-serif" font-size="16">WAM accuracy vs horizon</text>
<line x1="80" y1="400" x2="730" y2="400" stroke="black"/>
<line x1="80" y1="50" x2="80" y2="400" stroke="black"/>
<polyline points="394.5,201.4 394.5,320.9 394.5,399.1 394.5,400.0 394.5,400.0 394.5,400.0 394.5,50.0 394.5,400.0 394.5,400.0" fill="none" stroke="#1f77b4" stroke-width="2"/>
<text x="745" y="70" font-family="sans-serif" font-size="12" fill="#1f77b4">DirectWAM-H16</text>
<polyline points="394.5,400.0 394.5,400.0 394.5,399.1 394.5,400.0 394.5,400.0 394.5,400.0 394.5,50.0 394.5,400.0 394.5,400.0" fill="none" stroke="#d62728" stroke-width="2"/>
<text x="745" y="90" font-family="sans-serif" font-size="12" fill="#d62728">DirectWAM-H16-miss-only</text>
<polyline points="730.0,205.0 730.0,307.2 730.0,399.5 730.0,400.0 730.0,400.0 730.0,400.0 730.0,50.0 730.0,400.0 730.0,400.0" fill="none" stroke="#2ca02c" stroke-width="2"/>
<text x="745" y="110" font-family="sans-serif" font-size="12" fill="#2ca02c">DirectWAM-H32</text>
<polyline points="226.8,168.0 226.8,241.0 226.8,398.6 226.8,400.0 226.8,400.0 226.8,400.0 226.8,50.0 226.8,400.0 226.8,400.0" fill="none" stroke="#9467bd" stroke-width="2"/>
<text x="745" y="130" font-family="sans-serif" font-size="12" fill="#9467bd">DirectWAM-H8</text>
<polyline points="394.5,191.1 394.5,340.9 394.5,216.7 394.5,400.0 394.5,50.0 394.5,50.0 394.5,50.0 394.5,344.6 394.5,50.0" fill="none" stroke="#ff7f0e" stroke-width="2"/>
<text x="745" y="150" font-family="sans-serif" font-size="12" fill="#ff7f0e">GMC</text>
<polyline points="394.5,230.9 394.5,400.0 394.5,399.1 394.5,400.0 394.5,400.0 394.5,400.0 394.5,66.3 394.5,400.0 394.5,400.0" fill="none" stroke="#17becf" stroke-width="2"/>
<text x="745" y="170" font-family="sans-serif" font-size="12" fill="#17becf">HashedContext-H16</text>
<polyline points="730.0,272.6 730.0,400.0 730.0,398.6 730.0,400.0 730.0,400.0 730.0,400.0 730.0,95.1 730.0,400.0 730.0,400.0" fill="none" stroke="#1f77b4" stroke-width="2"/>
<text x="745" y="190" font-family="sans-serif" font-size="12" fill="#1f77b4">HashedContext-H32</text>
<polyline points="226.8,180.1 226.8,399.8 226.8,400.0 226.8,400.0 226.8,400.0 226.8,400.0 226.8,78.9 226.8,400.0 226.8,400.0" fill="none" stroke="#d62728" stroke-width="2"/>
<text x="745" y="210" font-family="sans-serif" font-size="12" fill="#d62728">HashedContext-H8</text>
<polyline points="394.5,191.0 394.5,373.3 394.5,398.4 394.5,400.0 394.5,400.0 394.5,400.0 394.5,50.0 394.5,400.0 394.5,400.0" fill="none" stroke="#2ca02c" stroke-width="2"/>
<text x="745" y="230" font-family="sans-serif" font-size="12" fill="#2ca02c">Markov-1</text>
<polyline points="394.5,150.9 394.5,374.1 394.5,391.9 394.5,400.0 394.5,400.0 394.5,400.0 394.5,50.0 394.5,400.0 394.5,400.0" fill="none" stroke="#9467bd" stroke-width="2"/>
<text x="745" y="250" font-family="sans-serif" font-size="12" fill="#9467bd">Markov-N-H16</text>
<polyline points="101.0,101.9 101.0,240.7 101.0,400.0 101.0,400.0 101.0,400.0 101.0,225.0 101.0,50.0 101.0,190.0 101.0,400.0" fill="none" stroke="#ff7f0e" stroke-width="2"/>
<text x="745" y="270" font-family="sans-serif" font-size="12" fill="#ff7f0e">Markov-N-H2</text>
<polyline points="142.9,118.5 142.9,359.2 142.9,400.0 142.9,400.0 142.9,400.0 142.9,400.0 142.9,50.0 142.9,260.0 142.9,400.0" fill="none" stroke="#17becf" stroke-width="2"/>
<text x="745" y="290" font-family="sans-serif" font-size="12" fill="#17becf">Markov-N-H4</text>
<polyline points="226.8,211.2 226.8,304.5 226.8,400.0 226.8,400.0 226.8,400.0 226.8,400.0 226.8,50.0 226.8,400.0 226.8,400.0" fill="none" stroke="#1f77b4" stroke-width="2"/>
<text x="745" y="310" font-family="sans-serif" font-size="12" fill="#1f77b4">Markov-N-H8</text>
<polyline points="80.0,363.6 80.0,400.0 80.0,400.0 80.0,398.8 80.0,312.7 80.0,356.3 80.0,400.0 80.0,392.8 80.0,225.1" fill="none" stroke="#d62728" stroke-width="2"/>
<text x="745" y="330" font-family="sans-serif" font-size="12" fill="#d62728">NextLine</text>
<polyline points="394.5,189.4 394.5,298.7 394.5,395.8 394.5,400.0 394.5,400.0 394.5,400.0 394.5,50.0 394.5,400.0 394.5,400.0" fill="none" stroke="#2ca02c" stroke-width="2"/>
<text x="745" y="350" font-family="sans-serif" font-size="12" fill="#2ca02c">RecursiveWAM</text>
<polyline points="394.5,196.7 394.5,400.0 394.5,400.0 394.5,400.0 394.5,50.0 394.5,400.0 394.5,50.0 394.5,353.3 394.5,50.0" fill="none" stroke="#9467bd" stroke-width="2"/>
<text x="745" y="370" font-family="sans-serif" font-size="12" fill="#9467bd">SPP</text>
<polyline points="80.0,400.0 80.0,145.0 80.0,400.0 80.0,400.0 80.0,137.3 80.0,93.7 80.0,400.0 80.0,400.0 80.0,400.0" fill="none" stroke="#ff7f0e" stroke-width="2"/>
<text x="745" y="390" font-family="sans-serif" font-size="12" fill="#ff7f0e">Stride</text>
<polyline points="394.5,201.3 394.5,400.0 394.5,400.0 394.5,400.0 394.5,50.0 394.5,50.0 394.5,50.0 394.5,400.0 394.5,50.0" fill="none" stroke="#17becf" stroke-width="2"/>
<text x="745" y="410" font-family="sans-serif" font-size="12" fill="#17becf">VLDP</text>
<text x="405.0" y="485" text-anchor="middle" font-family="sans-serif" font-size="12">Horizon</text>
<text x="15" y="225.0" transform="rotate(-90 15 225.0)" text-anchor="middle" font-family="sans-serif" font-size="12">Accuracy</text>
</svg>