<svg xmlns="http://www.w3.org/2000/svg" width="800" height="500" viewBox="0 0 800 500">
<rect width="100%" height="100%" fill="white"/>
<text x="400.0" y="25" text-anchor="middle" font-family="sans-serif" font-size="16">WAM speedup vs horizon</text>
<line x1="80" y1="400" x2="730" y2="400" stroke="black"/>
<line x1="80" y1="50" x2="80" y2="400" stroke="black"/>
<polyline points="394.5,353.5 394.5,356.5 394.5,364.0 394.5,364.3 394.5,364.2 394.5,364.2 394.5,350.3 394.5,364.2 394.5,364.2" fill="none" stroke="#1f77b4" stroke-width="2"/>
<text x="745" y="70" font-family="sans-serif" font-size="12" fill="#1f77b4">DirectWAM-H16</text>
<polyline points="394.5,339.9 394.5,353.9 394.5,364.5 394.5,364.3 394.5,364.2 394.5,364.2 394.5,350.7 394.5,364.2 394.5,364.2" fill="none" stroke="#d62728" stroke-width="2"/>
<text x="745" y="90" font-family="sans-serif" font-size="12" fill="#d62728">DirectWAM-H16-miss-only</text>
<polyline points="730.0,349.8 730.0,354.0 730.0,363.5 730.0,364.2 730.0,364.2 730.0,364.2 730.0,363.8 730.0,364.2 730.0,364.2" fill="none" stroke="#2ca02c" stroke-width="2"/>
<text x="745" y="110" font-family="sans-serif" font-size="12" fill="#2ca02c">DirectWAM-H32</text>
<polyline points="226.8,354.0 226.8,342.6 226.8,363.9 226.8,364.2 226.8,364.2 226.8,364.2 226.8,363.1 226.8,364.2 226.8,364.2" fill="none" stroke="#9467bd" stroke-width="2"/>
<text x="745" y="130" font-family="sans-serif" font-size="12" fill="#9467bd">DirectWAM-H8</text>
<polyline points="394.5,360.5 394.5,358.6 394.5,363.6 394.5,364.2 394.5,214.4 394.5,302.0 394.5,358.0 394.5,347.9 394.5,50.0" fill="none" stroke="#ff7f0e" stroke-width="2"/>
<text x="745" y="150" font-family="sans-serif" font-size="12" fill="#ff7f0e">GMC</text>
<polyline points="394.5,355.4 394.5,364.1 394.5,363.1 394.5,364.5 394.5,365.1 394.5,365.5 394.5,347.2 394.5,365.5 394.5,364.8" fill="none" stroke="#17becf" stroke-width="2"/>
<text x="745" y="170" font-family="sans-serif" font-size="12" fill="#17becf">HashedContext-H16</text>
<polyline points="730.0,352.3 730.0,364.0 730.0,363.6 730.0,364.4 730.0,365.1 730.0,365.4 730.0,367.0 730.0,365.4 730.0,364.8" fill="none" stroke="#1f77b4" stroke-width="2"/>
<text x="745" y="190" font-family="sans-serif" font-size="12" fill="#1f77b4">HashedContext-H32</text>
<polyline points="226.8,355.3 226.8,364.3 226.8,363.8 226.8,364.5 226.8,365.1 226.8,365.5 226.8,364.2 226.8,365.5 226.8,364.8" fill="none" stroke="#d62728" stroke-width="2"/>
<text x="745" y="210" font-family="sans-serif" font-size="12" fill="#d62728">HashedContext-H8</text>
<polyline points="394.5,357.5 394.5,363.4 394.5,364.0 394.5,364.2 394.5,364.2 394.5,364.2 394.5,350.3 394.5,364.2 394.5,364.2" fill="none" stroke="#2ca02c" stroke-width="2"/>
<text x="745" y="230" font-family="sans-serif" font-size="12" fill="#2ca02c">Markov-1</text>
<polyline points="394.5,360.3 394.5,364.2 394.5,364.2 394.5,364.2 394.5,364.2 394.5,364.2 394.5,358.0 394.5,364.2 394.5,364.2" fill="none" stroke="#9467bd" stroke-width="2"/>
<text x="745" y="250" font-family="sans-serif" font-size="12" fill="#9467bd">Markov-N-H16</text>
<polyline points="101.0,348.5 101.0,362.9 101.0,364.1 101.0,364.2 101.0,364.2 101.0,364.2 101.0,400.0 101.0,364.2 101.0,364.2" fill="none" stroke="#ff7f0e" stroke-width="2"/>
<text x="745" y="270" font-family="sans-serif" font-size="12" fill="#ff7f0e">Markov-N-H2</text>
<polyline points="142.9,348.3 142.9,364.1 142.9,364.1 142.9,364.2 142.9,364.2 142.9,364.2 142.9,387.4 142.9,364.2 142.9,364.2" fill="none" stroke="#17becf" stroke-width="2"/>
<text x="745" y="290" font-family="sans-serif" font-size="12" fill="#17becf">Markov-N-H4</text>
<polyline points="226.8,354.4 226.8,364.0 226.8,364.2 226.8,364.2 226.8,364.2 226.8,364.2 226.8,363.1 226.8,364.2 226.8,364.2" fill="none" stroke="#1f77b4" stroke-width="2"/>
<text x="745" y="310" font-family="sans-serif" font-size="12" fill="#1f77b4">Markov-N-H8</text>
<polyline points="80.0,364.7 80.0,363.6 80.0,342.3 80.0,364.4 80.0,361.7 80.0,356.7 80.0,365.7 80.0,341.9 80.0,364.2" fill="none" stroke="#d62728" stroke-width="2"/>
<text x="745" y="330" font-family="sans-serif" font-size="12" fill="#d62728">NextLine</text>
<polyline points="394.5,360.3 394.5,352.9 394.5,363.9 394.5,364.3 394.5,364.2 394.5,364.2 394.5,350.3 394.5,364.2 394.5,364.2" fill="none" stroke="#2ca02c" stroke-width="2"/>
<text x="745" y="350" font-family="sans-serif" font-size="12" fill="#2ca02c">RecursiveWAM</text>
<polyline points="394.5,360.5 394.5,364.2 394.5,364.2 394.5,364.2 394.5,214.4 394.5,364.2 394.5,350.3 394.5,362.5 394.5,50.0" fill="none" stroke="#9467bd" stroke-width="2"/>
<text x="745" y="370" font-family="sans-serif" font-size="12" fill="#9467bd">SPP</text>
<polyline points="80.0,364.2 80.0,369.2 80.0,364.2 80.0,364.2 80.0,364.2 80.0,364.2 80.0,364.2 80.0,364.2 80.0,364.2" fill="none" stroke="#ff7f0e" stroke-width="2"/>
<text x="745" y="390" font-family="sans-serif" font-size="12" fill="#ff7f0e">Stride</text>
<polyline points="394.5,352.1 394.5,364.2 394.5,364.2 394.5,364.2 394.5,214.4 394.5,302.0 394.5,350.3 394.5,364.2 394.5,50.0" fill="none" stroke="#17becf" stroke-width="2"/>
<text x="745" y="410" font-family="sans-serif" font-size="12" fill="#17becf">VLDP</text>
<text x="405.0" y="485" text-anchor="middle" font-family="sans-serif" font-size="12">Horizon</text>
<text x="15" y="225.0" transform="rotate(-90 15 225.0)" text-anchor="middle" font-family="sans-serif" font-size="12">Speedup</text>
</svg>